<svg width="158" height="39" viewBox="0 0 158 39" fill="none" xmlns="http://www.w3.org/2000/svg">
<path fill-rule="evenodd" clip-rule="evenodd" d="M12.2121 34.8942C15.0762 32.8452 18.9161 31.8054 22.756 31.8054C28.3584 31.8054 33.9294 33.9768 36.5103 38.3194H45.5119L42.8051 33.7627C37.0138 23.9764 22.8819 22.9978 12.2121 34.8942ZM34.2126 19.2362L22.7874 0L0 38.35H9.00167C14.069 29.8176 22.5986 22.2638 34.2126 19.2362Z" fill="#EE353C"/>
<path fill-rule="evenodd" clip-rule="evenodd" d="M60.7157 14.3424V27.6456H58.9846V25.352C58.2922 26.1777 57.4424 26.8505 56.4667 27.3092C53.7599 28.5631 50.5495 28.0126 48.4722 25.933C47.1188 24.618 46.3634 22.8136 46.4264 20.9481C46.3949 19.1132 47.1503 17.3394 48.5037 16.0244C49.7941 14.7094 51.6196 13.9448 53.5081 13.9754C54.5782 13.9448 55.6169 14.1895 56.5611 14.6788C57.5368 15.1681 58.3551 15.9021 58.9846 16.7584V14.3118H60.7157V14.3424ZM53.6655 15.6574C51.7141 15.6574 49.92 16.6666 48.9758 18.3487C48.0001 20.0307 48.0001 22.0491 48.9758 23.7311C49.4479 24.5568 50.1403 25.2602 50.9902 25.7495C51.8085 26.2083 52.7212 26.4529 53.6655 26.4529C54.6412 26.4529 55.5854 26.2083 56.4037 25.7495C57.2535 25.2908 57.946 24.6486 58.3866 23.8229C58.8587 22.9971 59.1105 22.0491 59.0791 21.101C59.1105 19.6637 58.544 18.2569 57.5053 17.2477C56.4982 16.1773 55.1133 15.6268 53.6655 15.6574ZM64.3982 27.6456H66.1608V9.20459H64.3982V27.6456ZM67.9863 14.3424H69.8118L73.9979 24.0063L78.4043 14.3424H78.7191L83.094 24.0063L87.343 14.3424H89.1685L83.2199 27.6456H82.9051L78.5302 18.104L74.1238 27.6456H73.8091L67.9863 14.3424ZM104.906 14.3424V27.6456H103.175V25.352C102.514 26.1777 101.664 26.8505 100.688 27.3092C97.9814 28.5631 94.771 28.0126 92.6937 25.933C91.3403 24.618 90.5849 22.8136 90.6478 20.9481C90.6164 19.1132 91.3717 17.3394 92.7251 16.0244C94.0156 14.7094 95.8411 13.9448 97.7296 13.9754C98.7997 13.9448 99.8383 14.1895 100.783 14.6788C101.727 15.1987 102.577 15.9021 103.175 16.7584V14.3118L104.906 14.3424ZM97.8555 15.6574C95.904 15.6574 94.11 16.6666 93.1658 18.3487C92.1901 20.0307 92.1901 22.0491 93.1658 23.7311C93.6379 24.5568 94.3303 25.2602 95.1801 25.7495C95.9985 26.2083 96.9112 26.4529 97.8555 26.4529C98.8312 26.4529 99.7754 26.2083 100.594 25.7495C101.444 25.2908 102.136 24.6486 102.577 23.8229C103.049 22.9971 103.301 22.0491 103.269 21.101C103.301 19.6637 102.734 18.2569 101.695 17.2477C100.688 16.1773 99.3033 15.6268 97.8555 15.6574ZM107.392 14.3424H109.249L113.97 24.5874L118.534 14.3424H120.423L112.239 32.5082H110.351L112.995 26.6364L107.392 14.3424ZM129.582 15.8103L128.449 16.9419C127.504 16.055 126.592 15.5963 125.679 15.5963C125.144 15.5963 124.609 15.7797 124.231 16.1467C123.853 16.4831 123.633 16.9419 123.633 17.4312C123.633 17.8899 123.822 18.3181 124.137 18.6545C124.483 19.052 125.175 19.5108 126.245 20.0613C127.567 20.7341 128.449 21.3457 128.921 21.9573C129.393 22.569 129.613 23.303 129.613 24.0369C129.645 25.0767 129.204 26.0859 128.417 26.8199C127.63 27.5845 126.56 27.982 125.458 27.9514C124.672 27.9514 123.916 27.7985 123.192 27.4621C122.5 27.1563 121.87 26.667 121.398 26.0859L122.5 24.8626C123.413 25.8413 124.357 26.3306 125.364 26.3306C126.025 26.3612 126.686 26.1165 127.158 25.6578C127.63 25.2602 127.882 24.7097 127.882 24.0981C127.882 23.6088 127.725 23.15 127.41 22.7831C127.064 22.4161 126.34 21.9268 125.207 21.3763C123.979 20.7646 123.129 20.153 122.689 19.5414C122.248 18.9297 121.996 18.2263 122.028 17.4618C121.996 16.5137 122.374 15.5963 123.098 14.954C123.822 14.2812 124.798 13.9142 125.773 13.9448C127.032 14.006 128.291 14.587 129.582 15.8103Z" fill="#231F20"/>
<path fill-rule="evenodd" clip-rule="evenodd" d="M144.028 21.8967H136.789L133.956 27.6767H130.998L139.937 9.29688H140.912L149.725 27.6767H146.829L144.028 21.8967ZM142.832 19.3584L140.44 14.4041L138.017 19.3584H142.832Z" fill="#EE353C"/>
<path fill-rule="evenodd" clip-rule="evenodd" d="M151.172 27.646H153.847V9.26611H151.172V27.646Z" fill="#EE353C"/>
<path d="M154.475 25.9336H155.891V26.2088H155.356V27.6462H155.042V26.2088H154.475V25.9336Z" fill="black"/>
<path d="M156.615 25.9336L157.088 26.9428L157.56 25.9336H158V27.6462H157.686V26.3312L157.182 27.4627H156.962L156.458 26.3006V27.6462H156.143V25.9336H156.615V25.9336Z" fill="black"/>
</svg>
